{"title":"Forbrydelsen.III.E10.DANiSH.720p.HDTV.x264","uid":7909323,"size":1131376732,"categoryP":"video","categoryS":"hd___tv_shows","magnet":"?xt=urn:btih:f7a3b0468131b03417df4e7f1476237c7f06fd23&amp;dn=Forbrydelsen.III.E10.DANiSH.720p.HDTV.x264&amp;tr=udp%3A%2F%2Ftracker.openbittorrent.com%3A80&amp;tr=udp%3A%2F%2Fopen.demonii.com%3A1337&amp;tr=udp%3A%2F%2Ftracker.coppersurfer.tk%3A6969&amp;tr=udp%3A%2F%2Fexodus.desync.com%3A6969","seeders":0,"leechers":1,"uploader":"gnawzguz","files":3,"time":1355172476,"description":"General\nComplete name                            : Forbrydelsen.III.E10.DANiSH.720p.HDTV.x264-DTV.mkv\nSubtitle                                 : Forbrydelsen.III.E10.DANiSH.720p.HDTV.x264-DTV.srt (dutch)\nFormat                                   : Matroska\nFormat version                           : Version 2\nFile size                                : 1.05 GiB\nDuration                                 : 1h 0mn\nOverall bit rate                         : 2 510 Kbps\nEncoded date                             : UTC 2012-11-25 19:01:11\nWriting application                      : mkvmerge v4.8.0 ('SALVATION') built on May 24 2011 03:12:58\nWriting library                          : libebml v1.2.0 + libmatroska v1.1.0\n\nVideo\nID                                       : 1\nFormat                                   : AVC\nFormat/Info                              : Advanced Video Codec\nFormat profile                           : &lt;a class=&quot;__cf_email__&quot; href=&quot;/cdn-cgi/l/email-protection&quot; data-cfemail=&quot;5d15343a351d1169736c&quot;&gt;[email&amp;#160;protected]&lt;/a&gt;&lt;script cf-hash='f9e31' type=&quot;text/javascript&quot;&gt;\n/* &lt;![CDATA[ */!function(){try{var t=&quot;currentScript&quot;in document?document.currentScript:function(){for(var t=document.getElementsByTagName(&quot;script&quot;),e=t.length;e--;)if(t[e].getAttribute(&quot;cf-hash&quot;))return t[e]}();if(t&amp;&amp;t.previousSibling){var e,r,n,i,c=t.previousSibling,a=c.getAttribute(&quot;data-cfemail&quot;);if(a){for(e=&quot;&quot;,r=parseInt(a.substr(0,2),16),n=2;a.length-n;n+=2)i=parseInt(a.substr(n,2),16)^r,e+=String.fromCharCode(i);e=document.createTextNode(e),c.parentNode.replaceChild(e,c)}}}catch(u){}}();/* ]]&gt; */&lt;/script&gt;\nFormat settings, CABAC                   : Yes\nFormat settings, ReFrames                : 5 frames\nCodec ID                                 : V_MPEG4/ISO/AVC\nDuration                                 : 1h 0mn\nBit rate                                 : 2 012 Kbps\nWidth                                    : 1 280 pixels\nHeight                                   : 720 pixels\nDisplay aspect ratio                     : 16:9\nFrame rate                               : 25.000 fps\nColor space                              : YUV\nChroma subsampling                       : 4:2:0\nBit depth                                : 8 bits\nScan type                                : Progressive\nBits/(Pixel*Frame)                       : 0.087\nStream size                              : 865 MiB (80%)\nWriting library                          : x264 core 129 r2230 1cffe9f\nDefault                                  : Yes\nForced                                   : No\n\nAudio\nID                                       : 2\nFormat                                   : AC-3\nFormat/Info                              : Audio Coding 3\nMode extension                           : CM (complete main)\nFormat settings, Endianness              : Big\nCodec ID                                 : A_AC3\nDuration                                 : 1h 0mn\nBit rate mode                            : Constant\nBit rate                                 : 448 Kbps\nChannel(s)                               : 6 channels\nChannel positions                        : Front: L C R, Side: L R, LFE\nSampling rate                            : 48.0 KHz\nBit depth                                : 16 bits\nCompression mode                         : Lossy\nStream size                              : 193 MiB (18%)\nDefault                                  : Yes\nForced                                   : No\n\n","torrent":{"xt":"urn:btih:f7a3b0468131b03417df4e7f1476237c7f06fd23","amp;dn":"Forbrydelsen.III.E10.DANiSH.720p.HDTV.x264","amp;tr":["udp%3A%2F%2Ftracker.openbittorrent.com%3A80","udp%3A%2F%2Fopen.demonii.com%3A1337","udp%3A%2F%2Ftracker.coppersurfer.tk%3A6969","udp%3A%2F%2Fexodus.desync.com%3A6969"],"infoHash":"f7a3b0468131b03417df4e7f1476237c7f06fd23","infoHashBuffer":{"type":"Buffer","data":[247,163,176,70,129,49,176,52,23,223,78,127,20,118,35,124,127,6,253,35]},"announce":[],"urlList":[]}}